- 
http://www.Speed.Cd 
       
http://www.Speed.Cd      fast  and The Hottest Private Tracker on the net

(((--Registration will be open on june every weekend--)))

Please Seed back to make the speed Faster!!!

------------------nfo--------------------------
-








































          
          
              
              
                    
                    
                    
                    

Hoodwinked.Too.Hood.VS.Evil.2011.DVDRip.XviD.AC3-SiC

Poster:
[img]http://leetleech.org/images/81381283874653763253.jpg[/img]

IMDB Link:
http://www.imdb.com/title/tt0844993/

Description:
Red Riding Hood is training in the group of Sister Hoods, when she and the Wolf are called to examine the sudden mysterious disappearance of Hansel and Gretel. 

General
Complete name                    : X:\vob\Hoodwinked.Too.Hood.VS.Evil.2011.DVDRiP.XviD-SiC3.avi
Format                           : AVI
Format/Info                      : Audio Video Interleave
File size                        : 1.30 GiB
Duration                         : 1h 26mn
Overall bit rate                 : 2 153 Kbps
Writing library                  : VirtualDub build 32839/release

Video
ID                               : 0
Format                           : MPEG-4 Visual
Format profile                   : Advanced Simple@L5
Format settings, BVOP            : 1
Format settings, QPel            : No
Format settings, GMC             : No warppoints
Format settings, Matrix          : Default (H.263)
Codec ID                         : XVID
Codec ID/Hint                    : XviD
Duration                         : 1h 26mn
Bit rate                         : 1 700 Kbps
Width                            : 720 pixels
Height                           : 480 pixels
Display aspect ratio             : 16:9
Frame rate                       : 23.976 fps
Standard                         : NTSC
Color space                      : YUV
Chroma subsampling               : 4:2:0
Bit depth                        : 8 bits
Scan type                        : Progressive
Compression mode                 : Lossy
Bits/(Pixel*Frame)               : 0.205
Stream size                      : 1.03 GiB (79%)
Writing library                  : XviD 1.2.1 (UTC 2008-12-04)

Audio
ID                               : 1
Format                           : AC-3
Format/Info                      : Audio Coding 3
Mode extension                   : CM (complete main)
Codec ID                         : 2000
Duration                         : 1h 26mn
Bit rate mode                    : Constant
Bit rate                         : 448 Kbps
Channel(s)                       : 6 channels
Channel positions                : Front: L C R, Side: L R, LFE
Sampling rate                    : 48.0 KHz
Bit depth                        : 16 bits
Compression mode                 : Lossy
Delay relative to video          : 1s 25ms
Stream size                      : 277 MiB (21%)
Alignment                        : Split accross interleaves
Interleave, duration             : 4678 ms (112.17 video frames)


Screenshots:
[img]http://leetleech.org/images/21933157373288472088.png[/img]
[img]http://leetleech.org/images/74086277513027934335.png[/img]
[img]http://leetleech.org/images/45926695160331438734.png[/img]
[img]http://leetleech.org/images/50468783808975846270.png[/img]
[img]http://leetleech.org/images/60695000711500237624.png[/img]

Note :   did my thing 

Source : Our own

Encoder: scumbag

Enjoy!

Respects to CaptainHomey, Cyanide, CM8, Rx, THC, ELEKTRI4KA, 
Killerhz, PA, YeFsTe, BoxSlots, MrRep and everyone in the struggle...